<svg xmlns="http://www.w3.org/2000/svg" width="18" height="14" viewBox="0 0 18 14">
    <path fill="#5196FF" fill-rule="evenodd" d="M17.578 2.875c.281.604.422 1.24.422 1.906 0 .73-.17 1.417-.51 2.063a4.782 4.782 0 0 1-1.424 1.64A3746.186 3746.186 0 0 1 9.44 13.86.728.728 0 0 1 9 14a.728.728 0 0 1-.44-.14c-.573-.459-2.08-1.683-4.517-3.672a178.876 178.876 0 0 0-1.986-1.594 1.864 1.864 0 0 0-.158-.125A4.7 4.7 0 0 1 .51 6.836 4.58 4.58 0 0 1 0 4.796a4.203 4.203 0 0 1 .423-1.905 4.687 4.687 0 0 1 1.16-1.547C2.567.448 3.745 0 5.116 0c.75 0 1.462.146 2.135.438a5.14 5.14 0 0 1 1.75 1.234A5.14 5.14 0 0 1 10.748.438 5.319 5.319 0 0 1 12.885 0c1.371 0 2.549.443 3.533 1.328.504.448.89.964 1.16 1.547z"/>
</svg>
