<svg xmlns="http://www.w3.org/2000/svg" width="16" height="16" viewBox="0 0 16 16">
    <path fill="#78909C" fill-rule="evenodd" d="M5.97 10.074c.746 0 1.434-.186 2.063-.56a4.141 4.141 0 0 0 1.492-1.503c.366-.63.55-1.317.55-2.063 0-.746-.184-1.434-.55-2.063a4.057 4.057 0 0 0-1.492-1.493 4.032 4.032 0 0 0-2.063-.548c-.746 0-1.434.183-2.063.548-.63.366-1.13.864-1.504 1.493a3.971 3.971 0 0 0-.56 2.063c0 .746.187 1.434.56 2.063a4.23 4.23 0 0 0 1.504 1.503c.629.374 1.317.56 2.063.56zm5.487 0L16 14.617 14.617 16l-4.543-4.565v-.724l-.263-.242a5.427 5.427 0 0 1-1.767 1.043 6.037 6.037 0 0 1-2.074.362 5.898 5.898 0 0 1-2.996-.79 5.86 5.86 0 0 1-2.162-2.13A5.833 5.833 0 0 1 0 5.949c0-1.083.267-2.082.801-2.996A5.867 5.867 0 0 1 2.974.79 5.898 5.898 0 0 1 5.97 0c1.083 0 2.085.27 3.007.812a5.8 5.8 0 0 1 2.118 2.151c.52.907.779 1.902.779 2.985a6.1 6.1 0 0 1-.362 2.096 5.427 5.427 0 0 1-1.043 1.767l.242.263h.746z"/>
</svg>
